<svg xmlns="http://www.w3.org/2000/svg" version="1.1" xmlns:xlink="http://www.w3.org/1999/xlink" xmlns:svgjs="http://svgjs.dev/svgjs" width="2000" height="900" preserveAspectRatio="none" viewBox="0 0 2000 900"><g mask="url(&quot;#SvgjsMask1049&quot;)" fill="none"><rect width="2000" height="900" x="0" y="0" fill="rgba(255, 253, 0, 1)"></rect><path d="M0,863.719C160.57,863.597,309.369,775.002,429.841,668.846C540.059,571.725,570.642,421.175,645.601,294.836C731.896,149.39,912.288,38.962,903.774,-129.943C895.301,-298.021,731.859,-413.841,604.341,-523.664C490.86,-621.398,356.921,-683.991,212.872,-724.976C69.847,-765.669,-77.493,-790.292,-222.869,-759.022C-375.39,-726.215,-526.516,-662.655,-627.944,-544.116C-729.101,-425.894,-773.503,-267.241,-776.764,-111.682C-779.809,33.611,-704.452,161.96,-645.528,294.803C-585.916,429.196,-540.558,572.29,-430.26,669.498C-309.768,775.69,-160.608,863.841,0,863.719" fill="#f0ee00"></path><path d="M2000 1326.133C2088.668 1318.687 2188.839 1358.137 2260.735 1305.712 2332.4719999999998 1253.403 2327.195 1146.865 2359.346 1064.108 2389.251 987.1320000000001 2448.017 918.726 2443.104 836.2909999999999 2438.041 751.336 2376.687 684.649 2332.398 611.975 2278.926 524.231 2253.053 402.027 2156.701 366.326 2060.678 330.74699999999996 1952.466 386.149 1864.526 438.617 1788.546 483.95 1758.234 573.456 1699.154 639.316 1638.67 706.741 1531.4940000000001 741.284 1513.399 830.037 1495.3029999999999 918.791 1577.801 993.47 1609.66 1078.262 1644.528 1171.063 1625.829 1298.857 1709.517 1352 1793.276 1405.188 1901.128 1334.436 2000 1326.133" fill="#fffd0f"></path></g><defs><mask id="SvgjsMask1049"><rect width="2000" height="900" fill="#ffffff"></rect></mask></defs></svg>